HIERARCHY
ROOT Hips
{
	OFFSET -0.001795 -0.223333 0.028219
	CHANNELS 6 Xposition Yposition Zposition Zrotation Yrotation Xrotation 
	JOINT LeftUpLeg
	{
		OFFSET 0.069520 -0.091406 -0.006815
		CHANNELS 3 Zrotation Yrotation Xrotation
		JOINT LeftLeg
		{
			OFFSET 0.034277 -0.375199 -0.004496
			CHANNELS 3 Zrotation Yrotation Xrotation
			JOINT LeftFoot
			{
				OFFSET -0.013596 -0.397961 -0.043693
				CHANNELS 3 Zrotation Yrotation Xrotation
				JOINT LeftToe
				{
					OFFSET 0.026358 -0.055791 0.119288
					CHANNELS 3 Zrotation Yrotation Xrotation
					End Site
					{
						OFFSET 0.000000 0.000000 0.000000
					}
				}
			}
		}
	}
	JOINT RightUpLeg
	{
		OFFSET -0.067670 -0.090522 -0.004320
		CHANNELS 3 Zrotation Yrotation Xrotation
		JOINT RightLeg
		{
			OFFSET -0.038290 -0.382569 -0.008850
			CHANNELS 3 Zrotation Yrotation Xrotation
			JOINT RightFoot
			{
				OFFSET 0.015774 -0.398415 -0.042312
				CHANNELS 3 Zrotation Yrotation Xrotation
				JOINT RightToe
				{
					OFFSET -0.025372 -0.048144 0.123348
					CHANNELS 3 Zrotation Yrotation Xrotation
					End Site
					{
						OFFSET 0.000000 0.000000 0.000000
					}
				}
			}
		}
	}
	JOINT Spine
	{
		OFFSET -0.002533 0.108963 -0.026696
		CHANNELS 3 Zrotation Yrotation Xrotation
		JOINT Spine1
		{
			OFFSET 0.005487 0.135180 0.001092
			CHANNELS 3 Zrotation Yrotation Xrotation
			JOINT Spine2
			{
				OFFSET 0.001457 0.052922 0.025425
				CHANNELS 3 Zrotation Yrotation Xrotation
				JOINT Neck
				{
					OFFSET -0.002778 0.213870 -0.042857
					CHANNELS 3 Zrotation Yrotation Xrotation
					JOINT Head
					{
						OFFSET 0.005152 0.064970 0.051349
						CHANNELS 3 Zrotation Yrotation Xrotation
						End Site
						{
							OFFSET 0.000000 0.000000 0.000000
						}
					}
				}
				JOINT LeftShoulder
				{
					OFFSET 0.078845 0.121749 -0.034090
					CHANNELS 3 Zrotation Yrotation Xrotation
					JOINT LeftArm
					{
						OFFSET 0.090977 0.030469 -0.008868
						CHANNELS 3 Zrotation Yrotation Xrotation
						JOINT LeftForeArm
						{
							OFFSET 0.259612 -0.012772 -0.027456
							CHANNELS 3 Zrotation Yrotation Xrotation
							JOINT LeftHand
							{
								OFFSET 0.249234 0.008986 -0.001171
								CHANNELS 3 Zrotation Yrotation Xrotation
								End Site
								{
									OFFSET 0.000000 0.000000 0.000000
								}
							}
						}
					}
				}
				JOINT RightShoulder
				{
					OFFSET -0.081759 0.118833 -0.038615
					CHANNELS 3 Zrotation Yrotation Xrotation
					JOINT RightArm
					{
						OFFSET -0.096012 0.032551 -0.009143
						CHANNELS 3 Zrotation Yrotation Xrotation
						JOINT RightForeArm
						{
							OFFSET -0.253742 -0.013329 -0.021401
							CHANNELS 3 Zrotation Yrotation Xrotation
							JOINT RightHand
							{
								OFFSET -0.255298 0.007772 -0.005559
								CHANNELS 3 Zrotation Yrotation Xrotation
								End Site
								{
									OFFSET 0.000000 0.000000 0.000000
								}
							}
						}
					}
				}
			}
		}
	}
}
MOTION
Frames: 7
Frame Time: 0.050000
0.025168 0.918566 0.487955 3.029961 -4.432888 33.039298 6.902300 -0.780379 -56.811201 -2.499311 0.238262 24.965529 -1.038996 -0.153923 4.941989 0.000000 0.000000 0.000000 1.607325 7.146569 -54.651004 -0.033360 1.661233 31.480637 -2.862586 -4.408823 -7.362335 0.000000 0.000000 0.000000 1.860310 -2.425934 48.744221 4.652102 -1.390326 -8.890973 -13.938157 14.308370 12.300156 21.997331 -8.203539 -23.834401 0.000000 0.000000 0.000000 51.637545 -20.058529 5.345162 54.105460 -43.854562 -27.968827 14.506694 25.680367 2.089998 0.000000 0.000000 0.000000 -39.389174 7.078567 -0.313767 -0.949502 42.407371 0.172752 -29.132455 -2.274731 2.320538 0.000000 0.000000 0.000000 
0.027430 0.913130 0.491786 2.176244 -5.184133 33.108359 7.074647 -0.385613 -57.201567 -2.089087 0.139966 23.567675 -1.314953 0.285606 7.507778 0.000000 0.000000 0.000000 2.032231 7.619987 -54.859069 0.866386 1.369588 30.972268 -3.214832 -5.744478 -7.010882 0.000000 0.000000 0.000000 1.170457 -1.777953 48.476336 4.174890 -1.257557 -8.594650 -13.182037 14.802688 13.058193 20.819222 -7.314729 -24.692823 0.000000 0.000000 0.000000 51.096532 -18.344157 5.587934 54.320220 -43.660893 -28.001349 14.760837 26.099684 2.146644 0.000000 0.000000 0.000000 -41.841285 5.158768 -0.514005 -0.041550 42.904353 0.686559 -29.028802 -0.889960 2.020324 0.000000 0.000000 0.000000 
0.029223 0.907560 0.495421 1.769628 -6.019179 32.665115 7.151922 -0.057911 -57.198621 -2.260924 0.237910 23.584121 -0.538877 2.074003 8.547382 0.000000 0.000000 0.000000 2.310755 8.033162 -55.086891 1.715628 1.190597 32.270305 -3.836681 -7.389316 -7.782131 0.000000 0.000000 0.000000 0.196004 -1.011479 48.370932 4.357193 -1.322571 -8.694983 -13.499462 15.530380 13.495332 21.262799 -7.229704 -25.737712 0.000000 0.000000 0.000000 50.985772 -18.169944 5.682311 53.384178 -44.138867 -28.185829 17.064673 26.748160 2.680595 0.000000 0.000000 0.000000 -42.308826 4.484402 -0.687534 -1.051436 42.551429 0.481976 -28.453528 0.104555 1.786626 0.000000 0.000000 0.000000 
0.030273 0.902596 0.498796 1.290128 -7.083128 32.307752 7.587087 0.566422 -58.195663 -3.207940 0.643523 25.231659 0.758546 4.864474 10.180106 0.000000 0.000000 0.000000 2.128748 8.368090 -55.658027 3.005984 0.847860 33.712735 -4.119477 -8.213683 -8.042389 0.000000 0.000000 0.000000 -0.587284 -0.279042 48.991046 4.324922 -1.251262 -9.760045 -13.883218 16.054040 13.845161 21.288803 -7.014199 -26.456993 0.000000 0.000000 0.000000 50.804738 -17.820747 5.753100 52.213677 -44.401643 -27.895337 18.354544 25.857544 2.835714 0.000000 0.000000 0.000000 -42.852566 4.437237 -0.745490 -1.980270 41.586641 0.206696 -27.642576 1.357981 1.465134 0.000000 0.000000 0.000000 
0.030616 0.898578 0.502311 1.336111 -7.439214 32.318769 7.774203 0.842049 -59.369873 -3.825812 0.929469 27.013096 1.069828 5.578782 10.811170 0.000000 0.000000 0.000000 2.251898 8.470646 -55.484011 2.900572 0.942756 34.018567 -4.371879 -8.402972 -9.354130 0.000000 0.000000 0.000000 -0.793205 -0.068167 49.009492 3.961946 -1.074896 -10.759887 -13.717637 16.009559 14.598413 21.094801 -6.753095 -27.095608 0.000000 0.000000 0.000000 50.983980 -17.576264 5.657364 50.669868 -44.330087 -26.928362 17.987536 25.058092 2.645492 0.000000 0.000000 0.000000 -44.065436 3.494888 -0.711541 -2.340788 40.832993 0.076786 -26.902976 2.998324 1.077494 0.000000 0.000000 0.000000 
0.030798 0.895863 0.506805 0.959234 -7.945334 32.148865 8.194479 1.341616 -60.513550 -4.477310 1.289552 29.164215 1.758380 7.075057 12.187719 0.000000 0.000000 0.000000 2.698268 8.716422 -55.016914 3.551058 0.761939 34.343878 -4.843226 -9.535567 -10.355312 0.000000 0.000000 0.000000 -0.751056 0.061652 49.491191 3.829101 -1.004302 -11.349266 -14.010978 15.619944 14.295884 20.610145 -6.660102 -26.634439 0.000000 0.000000 0.000000 50.850949 -17.632305 5.564016 49.326230 -44.301459 -25.984815 16.289850 23.324102 2.146557 0.000000 0.000000 0.000000 -44.724545 3.591186 -0.549450 -2.809573 40.595011 -0.147590 -26.795978 4.062609 0.817672 0.000000 0.000000 0.000000 
0.030854 0.894962 0.512951 0.702407 -8.181220 31.731796 8.237959 1.500193 -60.906021 -4.417711 1.316625 30.050489 2.134901 8.272711 14.948872 0.000000 0.000000 0.000000 3.326703 8.692265 -53.324761 3.444740 0.776294 32.791181 -5.040938 -9.849654 -10.946117 0.000000 0.000000 0.000000 -0.799006 0.148003 49.273413 3.817839 -0.974121 -11.895396 -13.807659 15.554453 14.842706 20.042721 -6.591785 -26.028180 0.000000 0.000000 0.000000 50.566749 -17.804944 5.443103 47.639452 -43.887384 -24.739400 15.479726 20.447786 1.730848 0.000000 0.000000 0.000000 -45.439630 3.335074 -0.537935 -2.731170 40.888408 -0.140244 -27.290013 4.983640 0.635108 0.000000 0.000000 0.000000 
